<svg xmlns="http://www.w3.org/2000/svg" width="1800" height="2600" viewBox="0 0 1800 2600">
<rect width="1800" height="2600" fill="#f8fafc"/>
<style>.t{font:700 50px Georgia,serif;fill:#111827}.s{font:600 28px Georgia,serif;fill:#475467}.h{font:700 30px Georgia,serif;fill:#111827}.b{font:20px Arial,sans-serif;fill:#1f2937}.mono{font:15px "Courier New",monospace;fill:#1f2937}.id{font:700 18px Arial,sans-serif;fill:#174f8a}</style>
<text x="900" y="65" text-anchor="middle" class="t">Master 4 Grid Maker — 100 EPSG:3857 Extents</text>
<text x="900" y="112" text-anchor="middle" class="s">Example Master 4: 82W, 81W, 30N, 31N</text>
<rect x="25" y="145" width="1750" height="430" rx="18" fill="#fff" stroke="#5aa5d8" stroke-width="3"/>
<text x="80" y="205" class="h">10 × 10 Grid Numbering Reminder</text>
<text x="80" y="242" class="b">Cell IDs follow decimal tenths. In this western/northern example: east→west across each row, south→north by row.</text>
<line x1="1000" y1="205" x2="1000" y2="515" stroke="#111827" stroke-width="2"/>
<line x1="1000" y1="205" x2="1650" y2="205" stroke="#111827" stroke-width="2"/>
<line x1="1065" y1="205" x2="1065" y2="515" stroke="#111827" stroke-width="1"/>
<line x1="1000" y1="236" x2="1650" y2="236" stroke="#111827" stroke-width="1"/>
<line x1="1130" y1="205" x2="1130" y2="515" stroke="#111827" stroke-width="1"/>
<line x1="1000" y1="267" x2="1650" y2="267" stroke="#111827" stroke-width="1"/>
<line x1="1195" y1="205" x2="1195" y2="515" stroke="#111827" stroke-width="1"/>
<line x1="1000" y1="298" x2="1650" y2="298" stroke="#111827" stroke-width="1"/>
<line x1="1260" y1="205" x2="1260" y2="515" stroke="#111827" stroke-width="1"/>
<line x1="1000" y1="329" x2="1650" y2="329" stroke="#111827" stroke-width="1"/>
<line x1="1325" y1="205" x2="1325" y2="515" stroke="#111827" stroke-width="1"/>
<line x1="1000" y1="360" x2="1650" y2="360" stroke="#111827" stroke-width="1"/>
<line x1="1390" y1="205" x2="1390" y2="515" stroke="#111827" stroke-width="1"/>
<line x1="1000" y1="391" x2="1650" y2="391" stroke="#111827" stroke-width="1"/>
<line x1="1455" y1="205" x2="1455" y2="515" stroke="#111827" stroke-width="1"/>
<line x1="1000" y1="422" x2="1650" y2="422" stroke="#111827" stroke-width="1"/>
<line x1="1520" y1="205" x2="1520" y2="515" stroke="#111827" stroke-width="1"/>
<line x1="1000" y1="453" x2="1650" y2="453" stroke="#111827" stroke-width="1"/>
<line x1="1585" y1="205" x2="1585" y2="515" stroke="#111827" stroke-width="1"/>
<line x1="1000" y1="484" x2="1650" y2="484" stroke="#111827" stroke-width="1"/>
<line x1="1650" y1="205" x2="1650" y2="515" stroke="#111827" stroke-width="2"/>
<line x1="1000" y1="515" x2="1650" y2="515" stroke="#111827" stroke-width="2"/>
<text x="1032.5" y="227" text-anchor="middle" font-family="Arial" font-size="15" font-weight="700">100</text>
<text x="1097.5" y="227" text-anchor="middle" font-family="Arial" font-size="15" font-weight="700">99</text>
<text x="1162.5" y="227" text-anchor="middle" font-family="Arial" font-size="15" font-weight="700">98</text>
<text x="1227.5" y="227" text-anchor="middle" font-family="Arial" font-size="15" font-weight="700">97</text>
<text x="1292.5" y="227" text-anchor="middle" font-family="Arial" font-size="15" font-weight="700">96</text>
<text x="1357.5" y="227" text-anchor="middle" font-family="Arial" font-size="15" font-weight="700">95</text>
<text x="1422.5" y="227" text-anchor="middle" font-family="Arial" font-size="15" font-weight="700">94</text>
<text x="1487.5" y="227" text-anchor="middle" font-family="Arial" font-size="15" font-weight="700">93</text>
<text x="1552.5" y="227" text-anchor="middle" font-family="Arial" font-size="15" font-weight="700">92</text>
<text x="1617.5" y="227" text-anchor="middle" font-family="Arial" font-size="15" font-weight="700">91</text>
<text x="1032.5" y="258" text-anchor="middle" font-family="Arial" font-size="15" font-weight="700">90</text>
<text x="1097.5" y="258" text-anchor="middle" font-family="Arial" font-size="15" font-weight="700">89</text>
<text x="1162.5" y="258" text-anchor="middle" font-family="Arial" font-size="15" font-weight="700">88</text>
<text x="1227.5" y="258" text-anchor="middle" font-family="Arial" font-size="15" font-weight="700">87</text>
<text x="1292.5" y="258" text-anchor="middle" font-family="Arial" font-size="15" font-weight="700">86</text>
<text x="1357.5" y="258" text-anchor="middle" font-family="Arial" font-size="15" font-weight="700">85</text>
<text x="1422.5" y="258" text-anchor="middle" font-family="Arial" font-size="15" font-weight="700">84</text>
<text x="1487.5" y="258" text-anchor="middle" font-family="Arial" font-size="15" font-weight="700">83</text>
<text x="1552.5" y="258" text-anchor="middle" font-family="Arial" font-size="15" font-weight="700">82</text>
<text x="1617.5" y="258" text-anchor="middle" font-family="Arial" font-size="15" font-weight="700">81</text>
<text x="1032.5" y="289" text-anchor="middle" font-family="Arial" font-size="15" font-weight="700">80</text>
<text x="1097.5" y="289" text-anchor="middle" font-family="Arial" font-size="15" font-weight="700">79</text>
<text x="1162.5" y="289" text-anchor="middle" font-family="Arial" font-size="15" font-weight="700">78</text>
<text x="1227.5" y="289" text-anchor="middle" font-family="Arial" font-size="15" font-weight="700">77</text>
<text x="1292.5" y="289" text-anchor="middle" font-family="Arial" font-size="15" font-weight="700">76</text>
<text x="1357.5" y="289" text-anchor="middle" font-family="Arial" font-size="15" font-weight="700">75</text>
<text x="1422.5" y="289" text-anchor="middle" font-family="Arial" font-size="15" font-weight="700">74</text>
<text x="1487.5" y="289" text-anchor="middle" font-family="Arial" font-size="15" font-weight="700">73</text>
<text x="1552.5" y="289" text-anchor="middle" font-family="Arial" font-size="15" font-weight="700">72</text>
<text x="1617.5" y="289" text-anchor="middle" font-family="Arial" font-size="15" font-weight="700">71</text>
<text x="1032.5" y="320" text-anchor="middle" font-family="Arial" font-size="15" font-weight="700">70</text>
<text x="1097.5" y="320" text-anchor="middle" font-family="Arial" font-size="15" font-weight="700">69</text>
<text x="1162.5" y="320" text-anchor="middle" font-family="Arial" font-size="15" font-weight="700">68</text>
<text x="1227.5" y="320" text-anchor="middle" font-family="Arial" font-size="15" font-weight="700">67</text>
<text x="1292.5" y="320" text-anchor="middle" font-family="Arial" font-size="15" font-weight="700">66</text>
<text x="1357.5" y="320" text-anchor="middle" font-family="Arial" font-size="15" font-weight="700">65</text>
<text x="1422.5" y="320" text-anchor="middle" font-family="Arial" font-size="15" font-weight="700">64</text>
<text x="1487.5" y="320" text-anchor="middle" font-family="Arial" font-size="15" font-weight="700">63</text>
<text x="1552.5" y="320" text-anchor="middle" font-family="Arial" font-size="15" font-weight="700">62</text>
<text x="1617.5" y="320" text-anchor="middle" font-family="Arial" font-size="15" font-weight="700">61</text>
<text x="1032.5" y="351" text-anchor="middle" font-family="Arial" font-size="15" font-weight="700">60</text>
<text x="1097.5" y="351" text-anchor="middle" font-family="Arial" font-size="15" font-weight="700">59</text>
<text x="1162.5" y="351" text-anchor="middle" font-family="Arial" font-size="15" font-weight="700">58</text>
<text x="1227.5" y="351" text-anchor="middle" font-family="Arial" font-size="15" font-weight="700">57</text>
<text x="1292.5" y="351" text-anchor="middle" font-family="Arial" font-size="15" font-weight="700">56</text>
<text x="1357.5" y="351" text-anchor="middle" font-family="Arial" font-size="15" font-weight="700">55</text>
<text x="1422.5" y="351" text-anchor="middle" font-family="Arial" font-size="15" font-weight="700">54</text>
<text x="1487.5" y="351" text-anchor="middle" font-family="Arial" font-size="15" font-weight="700">53</text>
<text x="1552.5" y="351" text-anchor="middle" font-family="Arial" font-size="15" font-weight="700">52</text>
<text x="1617.5" y="351" text-anchor="middle" font-family="Arial" font-size="15" font-weight="700">51</text>
<text x="1032.5" y="382" text-anchor="middle" font-family="Arial" font-size="15" font-weight="700">50</text>
<text x="1097.5" y="382" text-anchor="middle" font-family="Arial" font-size="15" font-weight="700">49</text>
<text x="1162.5" y="382" text-anchor="middle" font-family="Arial" font-size="15" font-weight="700">48</text>
<text x="1227.5" y="382" text-anchor="middle" font-family="Arial" font-size="15" font-weight="700">47</text>
<text x="1292.5" y="382" text-anchor="middle" font-family="Arial" font-size="15" font-weight="700">46</text>
<text x="1357.5" y="382" text-anchor="middle" font-family="Arial" font-size="15" font-weight="700">45</text>
<text x="1422.5" y="382" text-anchor="middle" font-family="Arial" font-size="15" font-weight="700">44</text>
<text x="1487.5" y="382" text-anchor="middle" font-family="Arial" font-size="15" font-weight="700">43</text>
<text x="1552.5" y="382" text-anchor="middle" font-family="Arial" font-size="15" font-weight="700">42</text>
<text x="1617.5" y="382" text-anchor="middle" font-family="Arial" font-size="15" font-weight="700">41</text>
<text x="1032.5" y="413" text-anchor="middle" font-family="Arial" font-size="15" font-weight="700">40</text>
<text x="1097.5" y="413" text-anchor="middle" font-family="Arial" font-size="15" font-weight="700">39</text>
<text x="1162.5" y="413" text-anchor="middle" font-family="Arial" font-size="15" font-weight="700">38</text>
<text x="1227.5" y="413" text-anchor="middle" font-family="Arial" font-size="15" font-weight="700">37</text>
<text x="1292.5" y="413" text-anchor="middle" font-family="Arial" font-size="15" font-weight="700">36</text>
<text x="1357.5" y="413" text-anchor="middle" font-family="Arial" font-size="15" font-weight="700">35</text>
<text x="1422.5" y="413" text-anchor="middle" font-family="Arial" font-size="15" font-weight="700">34</text>
<text x="1487.5" y="413" text-anchor="middle" font-family="Arial" font-size="15" font-weight="700">33</text>
<text x="1552.5" y="413" text-anchor="middle" font-family="Arial" font-size="15" font-weight="700">32</text>
<text x="1617.5" y="413" text-anchor="middle" font-family="Arial" font-size="15" font-weight="700">31</text>
<text x="1032.5" y="444" text-anchor="middle" font-family="Arial" font-size="15" font-weight="700">30</text>
<text x="1097.5" y="444" text-anchor="middle" font-family="Arial" font-size="15" font-weight="700">29</text>
<text x="1162.5" y="444" text-anchor="middle" font-family="Arial" font-size="15" font-weight="700">28</text>
<text x="1227.5" y="444" text-anchor="middle" font-family="Arial" font-size="15" font-weight="700">27</text>
<text x="1292.5" y="444" text-anchor="middle" font-family="Arial" font-size="15" font-weight="700">26</text>
<text x="1357.5" y="444" text-anchor="middle" font-family="Arial" font-size="15" font-weight="700">25</text>
<text x="1422.5" y="444" text-anchor="middle" font-family="Arial" font-size="15" font-weight="700">24</text>
<text x="1487.5" y="444" text-anchor="middle" font-family="Arial" font-size="15" font-weight="700">23</text>
<text x="1552.5" y="444" text-anchor="middle" font-family="Arial" font-size="15" font-weight="700">22</text>
<text x="1617.5" y="444" text-anchor="middle" font-family="Arial" font-size="15" font-weight="700">21</text>
<text x="1032.5" y="475" text-anchor="middle" font-family="Arial" font-size="15" font-weight="700">20</text>
<text x="1097.5" y="475" text-anchor="middle" font-family="Arial" font-size="15" font-weight="700">19</text>
<text x="1162.5" y="475" text-anchor="middle" font-family="Arial" font-size="15" font-weight="700">18</text>
<text x="1227.5" y="475" text-anchor="middle" font-family="Arial" font-size="15" font-weight="700">17</text>
<text x="1292.5" y="475" text-anchor="middle" font-family="Arial" font-size="15" font-weight="700">16</text>
<text x="1357.5" y="475" text-anchor="middle" font-family="Arial" font-size="15" font-weight="700">15</text>
<text x="1422.5" y="475" text-anchor="middle" font-family="Arial" font-size="15" font-weight="700">14</text>
<text x="1487.5" y="475" text-anchor="middle" font-family="Arial" font-size="15" font-weight="700">13</text>
<text x="1552.5" y="475" text-anchor="middle" font-family="Arial" font-size="15" font-weight="700">12</text>
<text x="1617.5" y="475" text-anchor="middle" font-family="Arial" font-size="15" font-weight="700">11</text>
<text x="1032.5" y="506" text-anchor="middle" font-family="Arial" font-size="15" font-weight="700">10</text>
<text x="1097.5" y="506" text-anchor="middle" font-family="Arial" font-size="15" font-weight="700">9</text>
<text x="1162.5" y="506" text-anchor="middle" font-family="Arial" font-size="15" font-weight="700">8</text>
<text x="1227.5" y="506" text-anchor="middle" font-family="Arial" font-size="15" font-weight="700">7</text>
<text x="1292.5" y="506" text-anchor="middle" font-family="Arial" font-size="15" font-weight="700">6</text>
<text x="1357.5" y="506" text-anchor="middle" font-family="Arial" font-size="15" font-weight="700">5</text>
<text x="1422.5" y="506" text-anchor="middle" font-family="Arial" font-size="15" font-weight="700">4</text>
<text x="1487.5" y="506" text-anchor="middle" font-family="Arial" font-size="15" font-weight="700">3</text>
<text x="1552.5" y="506" text-anchor="middle" font-family="Arial" font-size="15" font-weight="700">2</text>
<text x="1617.5" y="506" text-anchor="middle" font-family="Arial" font-size="15" font-weight="700">1</text>
<text x="1325" y="185" text-anchor="middle" class="b" font-weight="700">Longitude (°W)</text>
<text x="970" y="365" transform="rotate(-90 970 365)" text-anchor="middle" class="b" font-weight="700">Latitude (°N)</text>
<rect x="25" y="600" width="1750" height="1915" rx="18" fill="#fff" stroke="#6da56d" stroke-width="3"/>
<text x="900" y="655" text-anchor="middle" class="h">Extent Catalog (EPSG:3857)</text>
<text x="900" y="690" text-anchor="middle" class="b">Syntax: cell  xmin,xmax,ymin,ymax [EPSG:3857]</text>
<rect x="45" y="730" width="325" height="1720" rx="12" fill="#fbfdff" stroke="#4aa3df" stroke-width="2"/>
<text x="207.5" y="775" text-anchor="middle" class="h" font-size="25" fill="#4aa3df">Cells 01–20</text>
<text x="57" y="820" class="id">01</text>
<text x="97" y="820" class="mono">-9028010.7033,-9016878.7543,</text>
<text x="97" y="843" class="mono">3503549.8435,3516410.3983</text>
<text x="97" y="866" class="mono">[EPSG:3857]</text>
<text x="57" y="900" class="id">02</text>
<text x="97" y="900" class="mono">-9039142.6524,-9028010.7033,</text>
<text x="97" y="923" class="mono">3503549.8435,3516410.3983</text>
<text x="97" y="946" class="mono">[EPSG:3857]</text>
<text x="57" y="980" class="id">03</text>
<text x="97" y="980" class="mono">-9050274.6015,-9039142.6524,</text>
<text x="97" y="1003" class="mono">3503549.8435,3516410.3983</text>
<text x="97" y="1026" class="mono">[EPSG:3857]</text>
<text x="57" y="1060" class="id">04</text>
<text x="97" y="1060" class="mono">-9061406.5506,-9050274.6015,</text>
<text x="97" y="1083" class="mono">3503549.8435,3516410.3983</text>
<text x="97" y="1106" class="mono">[EPSG:3857]</text>
<text x="57" y="1140" class="id">05</text>
<text x="97" y="1140" class="mono">-9072538.4997,-9061406.5506,</text>
<text x="97" y="1163" class="mono">3503549.8435,3516410.3983</text>
<text x="97" y="1186" class="mono">[EPSG:3857]</text>
<text x="57" y="1220" class="id">06</text>
<text x="97" y="1220" class="mono">-9083670.4487,-9072538.4997,</text>
<text x="97" y="1243" class="mono">3503549.8435,3516410.3983</text>
<text x="97" y="1266" class="mono">[EPSG:3857]</text>
<text x="57" y="1300" class="id">07</text>
<text x="97" y="1300" class="mono">-9094802.3978,-9083670.4487,</text>
<text x="97" y="1323" class="mono">3503549.8435,3516410.3983</text>
<text x="97" y="1346" class="mono">[EPSG:3857]</text>
<text x="57" y="1380" class="id">08</text>
<text x="97" y="1380" class="mono">-9105934.3469,-9094802.3978,</text>
<text x="97" y="1403" class="mono">3503549.8435,3516410.3983</text>
<text x="97" y="1426" class="mono">[EPSG:3857]</text>
<text x="57" y="1460" class="id">09</text>
<text x="97" y="1460" class="mono">-9117066.2960,-9105934.3469,</text>
<text x="97" y="1483" class="mono">3503549.8435,3516410.3983</text>
<text x="97" y="1506" class="mono">[EPSG:3857]</text>
<text x="57" y="1540" class="id">10</text>
<text x="97" y="1540" class="mono">-9128198.2450,-9117066.2960,</text>
<text x="97" y="1563" class="mono">3503549.8435,3516410.3983</text>
<text x="97" y="1586" class="mono">[EPSG:3857]</text>
<text x="57" y="1620" class="id">11</text>
<text x="97" y="1620" class="mono">-9028010.7033,-9016878.7543,</text>
<text x="97" y="1643" class="mono">3516410.3983,3529283.9711</text>
<text x="97" y="1666" class="mono">[EPSG:3857]</text>
<text x="57" y="1700" class="id">12</text>
<text x="97" y="1700" class="mono">-9039142.6524,-9028010.7033,</text>
<text x="97" y="1723" class="mono">3516410.3983,3529283.9711</text>
<text x="97" y="1746" class="mono">[EPSG:3857]</text>
<text x="57" y="1780" class="id">13</text>
<text x="97" y="1780" class="mono">-9050274.6015,-9039142.6524,</text>
<text x="97" y="1803" class="mono">3516410.3983,3529283.9711</text>
<text x="97" y="1826" class="mono">[EPSG:3857]</text>
<text x="57" y="1860" class="id">14</text>
<text x="97" y="1860" class="mono">-9061406.5506,-9050274.6015,</text>
<text x="97" y="1883" class="mono">3516410.3983,3529283.9711</text>
<text x="97" y="1906" class="mono">[EPSG:3857]</text>
<text x="57" y="1940" class="id">15</text>
<text x="97" y="1940" class="mono">-9072538.4997,-9061406.5506,</text>
<text x="97" y="1963" class="mono">3516410.3983,3529283.9711</text>
<text x="97" y="1986" class="mono">[EPSG:3857]</text>
<text x="57" y="2020" class="id">16</text>
<text x="97" y="2020" class="mono">-9083670.4487,-9072538.4997,</text>
<text x="97" y="2043" class="mono">3516410.3983,3529283.9711</text>
<text x="97" y="2066" class="mono">[EPSG:3857]</text>
<text x="57" y="2100" class="id">17</text>
<text x="97" y="2100" class="mono">-9094802.3978,-9083670.4487,</text>
<text x="97" y="2123" class="mono">3516410.3983,3529283.9711</text>
<text x="97" y="2146" class="mono">[EPSG:3857]</text>
<text x="57" y="2180" class="id">18</text>
<text x="97" y="2180" class="mono">-9105934.3469,-9094802.3978,</text>
<text x="97" y="2203" class="mono">3516410.3983,3529283.9711</text>
<text x="97" y="2226" class="mono">[EPSG:3857]</text>
<text x="57" y="2260" class="id">19</text>
<text x="97" y="2260" class="mono">-9117066.2960,-9105934.3469,</text>
<text x="97" y="2283" class="mono">3516410.3983,3529283.9711</text>
<text x="97" y="2306" class="mono">[EPSG:3857]</text>
<text x="57" y="2340" class="id">20</text>
<text x="97" y="2340" class="mono">-9128198.2450,-9117066.2960,</text>
<text x="97" y="2363" class="mono">3516410.3983,3529283.9711</text>
<text x="97" y="2386" class="mono">[EPSG:3857]</text>
<rect x="390" y="730" width="325" height="1720" rx="12" fill="#fbfdff" stroke="#6daa6d" stroke-width="2"/>
<text x="552.5" y="775" text-anchor="middle" class="h" font-size="25" fill="#6daa6d">Cells 21–40</text>
<text x="402" y="820" class="id">21</text>
<text x="442" y="820" class="mono">-9028010.7033,-9016878.7543,</text>
<text x="442" y="843" class="mono">3529283.9711,3542170.6276</text>
<text x="442" y="866" class="mono">[EPSG:3857]</text>
<text x="402" y="900" class="id">22</text>
<text x="442" y="900" class="mono">-9039142.6524,-9028010.7033,</text>
<text x="442" y="923" class="mono">3529283.9711,3542170.6276</text>
<text x="442" y="946" class="mono">[EPSG:3857]</text>
<text x="402" y="980" class="id">23</text>
<text x="442" y="980" class="mono">-9050274.6015,-9039142.6524,</text>
<text x="442" y="1003" class="mono">3529283.9711,3542170.6276</text>
<text x="442" y="1026" class="mono">[EPSG:3857]</text>
<text x="402" y="1060" class="id">24</text>
<text x="442" y="1060" class="mono">-9061406.5506,-9050274.6015,</text>
<text x="442" y="1083" class="mono">3529283.9711,3542170.6276</text>
<text x="442" y="1106" class="mono">[EPSG:3857]</text>
<text x="402" y="1140" class="id">25</text>
<text x="442" y="1140" class="mono">-9072538.4997,-9061406.5506,</text>
<text x="442" y="1163" class="mono">3529283.9711,3542170.6276</text>
<text x="442" y="1186" class="mono">[EPSG:3857]</text>
<text x="402" y="1220" class="id">26</text>
<text x="442" y="1220" class="mono">-9083670.4487,-9072538.4997,</text>
<text x="442" y="1243" class="mono">3529283.9711,3542170.6276</text>
<text x="442" y="1266" class="mono">[EPSG:3857]</text>
<text x="402" y="1300" class="id">27</text>
<text x="442" y="1300" class="mono">-9094802.3978,-9083670.4487,</text>
<text x="442" y="1323" class="mono">3529283.9711,3542170.6276</text>
<text x="442" y="1346" class="mono">[EPSG:3857]</text>
<text x="402" y="1380" class="id">28</text>
<text x="442" y="1380" class="mono">-9105934.3469,-9094802.3978,</text>
<text x="442" y="1403" class="mono">3529283.9711,3542170.6276</text>
<text x="442" y="1426" class="mono">[EPSG:3857]</text>
<text x="402" y="1460" class="id">29</text>
<text x="442" y="1460" class="mono">-9117066.2960,-9105934.3469,</text>
<text x="442" y="1483" class="mono">3529283.9711,3542170.6276</text>
<text x="442" y="1506" class="mono">[EPSG:3857]</text>
<text x="402" y="1540" class="id">30</text>
<text x="442" y="1540" class="mono">-9128198.2450,-9117066.2960,</text>
<text x="442" y="1563" class="mono">3529283.9711,3542170.6276</text>
<text x="442" y="1586" class="mono">[EPSG:3857]</text>
<text x="402" y="1620" class="id">31</text>
<text x="442" y="1620" class="mono">-9028010.7033,-9016878.7543,</text>
<text x="442" y="1643" class="mono">3542170.6276,3555070.4338</text>
<text x="442" y="1666" class="mono">[EPSG:3857]</text>
<text x="402" y="1700" class="id">32</text>
<text x="442" y="1700" class="mono">-9039142.6524,-9028010.7033,</text>
<text x="442" y="1723" class="mono">3542170.6276,3555070.4338</text>
<text x="442" y="1746" class="mono">[EPSG:3857]</text>
<text x="402" y="1780" class="id">33</text>
<text x="442" y="1780" class="mono">-9050274.6015,-9039142.6524,</text>
<text x="442" y="1803" class="mono">3542170.6276,3555070.4338</text>
<text x="442" y="1826" class="mono">[EPSG:3857]</text>
<text x="402" y="1860" class="id">34</text>
<text x="442" y="1860" class="mono">-9061406.5506,-9050274.6015,</text>
<text x="442" y="1883" class="mono">3542170.6276,3555070.4338</text>
<text x="442" y="1906" class="mono">[EPSG:3857]</text>
<text x="402" y="1940" class="id">35</text>
<text x="442" y="1940" class="mono">-9072538.4997,-9061406.5506,</text>
<text x="442" y="1963" class="mono">3542170.6276,3555070.4338</text>
<text x="442" y="1986" class="mono">[EPSG:3857]</text>
<text x="402" y="2020" class="id">36</text>
<text x="442" y="2020" class="mono">-9083670.4487,-9072538.4997,</text>
<text x="442" y="2043" class="mono">3542170.6276,3555070.4338</text>
<text x="442" y="2066" class="mono">[EPSG:3857]</text>
<text x="402" y="2100" class="id">37</text>
<text x="442" y="2100" class="mono">-9094802.3978,-9083670.4487,</text>
<text x="442" y="2123" class="mono">3542170.6276,3555070.4338</text>
<text x="442" y="2146" class="mono">[EPSG:3857]</text>
<text x="402" y="2180" class="id">38</text>
<text x="442" y="2180" class="mono">-9105934.3469,-9094802.3978,</text>
<text x="442" y="2203" class="mono">3542170.6276,3555070.4338</text>
<text x="442" y="2226" class="mono">[EPSG:3857]</text>
<text x="402" y="2260" class="id">39</text>
<text x="442" y="2260" class="mono">-9117066.2960,-9105934.3469,</text>
<text x="442" y="2283" class="mono">3542170.6276,3555070.4338</text>
<text x="442" y="2306" class="mono">[EPSG:3857]</text>
<text x="402" y="2340" class="id">40</text>
<text x="442" y="2340" class="mono">-9128198.2450,-9117066.2960,</text>
<text x="442" y="2363" class="mono">3542170.6276,3555070.4338</text>
<text x="442" y="2386" class="mono">[EPSG:3857]</text>
<rect x="735" y="730" width="325" height="1720" rx="12" fill="#fbfdff" stroke="#f59e0b" stroke-width="2"/>
<text x="897.5" y="775" text-anchor="middle" class="h" font-size="25" fill="#f59e0b">Cells 41–60</text>
<text x="747" y="820" class="id">41</text>
<text x="787" y="820" class="mono">-9028010.7033,-9016878.7543,</text>
<text x="787" y="843" class="mono">3555070.4338,3567983.4559</text>
<text x="787" y="866" class="mono">[EPSG:3857]</text>
<text x="747" y="900" class="id">42</text>
<text x="787" y="900" class="mono">-9039142.6524,-9028010.7033,</text>
<text x="787" y="923" class="mono">3555070.4338,3567983.4559</text>
<text x="787" y="946" class="mono">[EPSG:3857]</text>
<text x="747" y="980" class="id">43</text>
<text x="787" y="980" class="mono">-9050274.6015,-9039142.6524,</text>
<text x="787" y="1003" class="mono">3555070.4338,3567983.4559</text>
<text x="787" y="1026" class="mono">[EPSG:3857]</text>
<text x="747" y="1060" class="id">44</text>
<text x="787" y="1060" class="mono">-9061406.5506,-9050274.6015,</text>
<text x="787" y="1083" class="mono">3555070.4338,3567983.4559</text>
<text x="787" y="1106" class="mono">[EPSG:3857]</text>
<text x="747" y="1140" class="id">45</text>
<text x="787" y="1140" class="mono">-9072538.4997,-9061406.5506,</text>
<text x="787" y="1163" class="mono">3555070.4338,3567983.4559</text>
<text x="787" y="1186" class="mono">[EPSG:3857]</text>
<text x="747" y="1220" class="id">46</text>
<text x="787" y="1220" class="mono">-9083670.4487,-9072538.4997,</text>
<text x="787" y="1243" class="mono">3555070.4338,3567983.4559</text>
<text x="787" y="1266" class="mono">[EPSG:3857]</text>
<text x="747" y="1300" class="id">47</text>
<text x="787" y="1300" class="mono">-9094802.3978,-9083670.4487,</text>
<text x="787" y="1323" class="mono">3555070.4338,3567983.4559</text>
<text x="787" y="1346" class="mono">[EPSG:3857]</text>
<text x="747" y="1380" class="id">48</text>
<text x="787" y="1380" class="mono">-9105934.3469,-9094802.3978,</text>
<text x="787" y="1403" class="mono">3555070.4338,3567983.4559</text>
<text x="787" y="1426" class="mono">[EPSG:3857]</text>
<text x="747" y="1460" class="id">49</text>
<text x="787" y="1460" class="mono">-9117066.2960,-9105934.3469,</text>
<text x="787" y="1483" class="mono">3555070.4338,3567983.4559</text>
<text x="787" y="1506" class="mono">[EPSG:3857]</text>
<text x="747" y="1540" class="id">50</text>
<text x="787" y="1540" class="mono">-9128198.2450,-9117066.2960,</text>
<text x="787" y="1563" class="mono">3555070.4338,3567983.4559</text>
<text x="787" y="1586" class="mono">[EPSG:3857]</text>
<text x="747" y="1620" class="id">51</text>
<text x="787" y="1620" class="mono">-9028010.7033,-9016878.7543,</text>
<text x="787" y="1643" class="mono">3567983.4559,3580909.7605</text>
<text x="787" y="1666" class="mono">[EPSG:3857]</text>
<text x="747" y="1700" class="id">52</text>
<text x="787" y="1700" class="mono">-9039142.6524,-9028010.7033,</text>
<text x="787" y="1723" class="mono">3567983.4559,3580909.7605</text>
<text x="787" y="1746" class="mono">[EPSG:3857]</text>
<text x="747" y="1780" class="id">53</text>
<text x="787" y="1780" class="mono">-9050274.6015,-9039142.6524,</text>
<text x="787" y="1803" class="mono">3567983.4559,3580909.7605</text>
<text x="787" y="1826" class="mono">[EPSG:3857]</text>
<text x="747" y="1860" class="id">54</text>
<text x="787" y="1860" class="mono">-9061406.5506,-9050274.6015,</text>
<text x="787" y="1883" class="mono">3567983.4559,3580909.7605</text>
<text x="787" y="1906" class="mono">[EPSG:3857]</text>
<text x="747" y="1940" class="id">55</text>
<text x="787" y="1940" class="mono">-9072538.4997,-9061406.5506,</text>
<text x="787" y="1963" class="mono">3567983.4559,3580909.7605</text>
<text x="787" y="1986" class="mono">[EPSG:3857]</text>
<text x="747" y="2020" class="id">56</text>
<text x="787" y="2020" class="mono">-9083670.4487,-9072538.4997,</text>
<text x="787" y="2043" class="mono">3567983.4559,3580909.7605</text>
<text x="787" y="2066" class="mono">[EPSG:3857]</text>
<text x="747" y="2100" class="id">57</text>
<text x="787" y="2100" class="mono">-9094802.3978,-9083670.4487,</text>
<text x="787" y="2123" class="mono">3567983.4559,3580909.7605</text>
<text x="787" y="2146" class="mono">[EPSG:3857]</text>
<text x="747" y="2180" class="id">58</text>
<text x="787" y="2180" class="mono">-9105934.3469,-9094802.3978,</text>
<text x="787" y="2203" class="mono">3567983.4559,3580909.7605</text>
<text x="787" y="2226" class="mono">[EPSG:3857]</text>
<text x="747" y="2260" class="id">59</text>
<text x="787" y="2260" class="mono">-9117066.2960,-9105934.3469,</text>
<text x="787" y="2283" class="mono">3567983.4559,3580909.7605</text>
<text x="787" y="2306" class="mono">[EPSG:3857]</text>
<text x="747" y="2340" class="id">60</text>
<text x="787" y="2340" class="mono">-9128198.2450,-9117066.2960,</text>
<text x="787" y="2363" class="mono">3567983.4559,3580909.7605</text>
<text x="787" y="2386" class="mono">[EPSG:3857]</text>
<rect x="1080" y="730" width="325" height="1720" rx="12" fill="#fbfdff" stroke="#9a7be0" stroke-width="2"/>
<text x="1242.5" y="775" text-anchor="middle" class="h" font-size="25" fill="#9a7be0">Cells 61–80</text>
<text x="1092" y="820" class="id">61</text>
<text x="1132" y="820" class="mono">-9028010.7033,-9016878.7543,</text>
<text x="1132" y="843" class="mono">3580909.7605,3593849.4142</text>
<text x="1132" y="866" class="mono">[EPSG:3857]</text>
<text x="1092" y="900" class="id">62</text>
<text x="1132" y="900" class="mono">-9039142.6524,-9028010.7033,</text>
<text x="1132" y="923" class="mono">3580909.7605,3593849.4142</text>
<text x="1132" y="946" class="mono">[EPSG:3857]</text>
<text x="1092" y="980" class="id">63</text>
<text x="1132" y="980" class="mono">-9050274.6015,-9039142.6524,</text>
<text x="1132" y="1003" class="mono">3580909.7605,3593849.4142</text>
<text x="1132" y="1026" class="mono">[EPSG:3857]</text>
<text x="1092" y="1060" class="id">64</text>
<text x="1132" y="1060" class="mono">-9061406.5506,-9050274.6015,</text>
<text x="1132" y="1083" class="mono">3580909.7605,3593849.4142</text>
<text x="1132" y="1106" class="mono">[EPSG:3857]</text>
<text x="1092" y="1140" class="id">65</text>
<text x="1132" y="1140" class="mono">-9072538.4997,-9061406.5506,</text>
<text x="1132" y="1163" class="mono">3580909.7605,3593849.4142</text>
<text x="1132" y="1186" class="mono">[EPSG:3857]</text>
<text x="1092" y="1220" class="id">66</text>
<text x="1132" y="1220" class="mono">-9083670.4487,-9072538.4997,</text>
<text x="1132" y="1243" class="mono">3580909.7605,3593849.4142</text>
<text x="1132" y="1266" class="mono">[EPSG:3857]</text>
<text x="1092" y="1300" class="id">67</text>
<text x="1132" y="1300" class="mono">-9094802.3978,-9083670.4487,</text>
<text x="1132" y="1323" class="mono">3580909.7605,3593849.4142</text>
<text x="1132" y="1346" class="mono">[EPSG:3857]</text>
<text x="1092" y="1380" class="id">68</text>
<text x="1132" y="1380" class="mono">-9105934.3469,-9094802.3978,</text>
<text x="1132" y="1403" class="mono">3580909.7605,3593849.4142</text>
<text x="1132" y="1426" class="mono">[EPSG:3857]</text>
<text x="1092" y="1460" class="id">69</text>
<text x="1132" y="1460" class="mono">-9117066.2960,-9105934.3469,</text>
<text x="1132" y="1483" class="mono">3580909.7605,3593849.4142</text>
<text x="1132" y="1506" class="mono">[EPSG:3857]</text>
<text x="1092" y="1540" class="id">70</text>
<text x="1132" y="1540" class="mono">-9128198.2450,-9117066.2960,</text>
<text x="1132" y="1563" class="mono">3580909.7605,3593849.4142</text>
<text x="1132" y="1586" class="mono">[EPSG:3857]</text>
<text x="1092" y="1620" class="id">71</text>
<text x="1132" y="1620" class="mono">-9028010.7033,-9016878.7543,</text>
<text x="1132" y="1643" class="mono">3593849.4142,3606802.4843</text>
<text x="1132" y="1666" class="mono">[EPSG:3857]</text>
<text x="1092" y="1700" class="id">72</text>
<text x="1132" y="1700" class="mono">-9039142.6524,-9028010.7033,</text>
<text x="1132" y="1723" class="mono">3593849.4142,3606802.4843</text>
<text x="1132" y="1746" class="mono">[EPSG:3857]</text>
<text x="1092" y="1780" class="id">73</text>
<text x="1132" y="1780" class="mono">-9050274.6015,-9039142.6524,</text>
<text x="1132" y="1803" class="mono">3593849.4142,3606802.4843</text>
<text x="1132" y="1826" class="mono">[EPSG:3857]</text>
<text x="1092" y="1860" class="id">74</text>
<text x="1132" y="1860" class="mono">-9061406.5506,-9050274.6015,</text>
<text x="1132" y="1883" class="mono">3593849.4142,3606802.4843</text>
<text x="1132" y="1906" class="mono">[EPSG:3857]</text>
<text x="1092" y="1940" class="id">75</text>
<text x="1132" y="1940" class="mono">-9072538.4997,-9061406.5506,</text>
<text x="1132" y="1963" class="mono">3593849.4142,3606802.4843</text>
<text x="1132" y="1986" class="mono">[EPSG:3857]</text>
<text x="1092" y="2020" class="id">76</text>
<text x="1132" y="2020" class="mono">-9083670.4487,-9072538.4997,</text>
<text x="1132" y="2043" class="mono">3593849.4142,3606802.4843</text>
<text x="1132" y="2066" class="mono">[EPSG:3857]</text>
<text x="1092" y="2100" class="id">77</text>
<text x="1132" y="2100" class="mono">-9094802.3978,-9083670.4487,</text>
<text x="1132" y="2123" class="mono">3593849.4142,3606802.4843</text>
<text x="1132" y="2146" class="mono">[EPSG:3857]</text>
<text x="1092" y="2180" class="id">78</text>
<text x="1132" y="2180" class="mono">-9105934.3469,-9094802.3978,</text>
<text x="1132" y="2203" class="mono">3593849.4142,3606802.4843</text>
<text x="1132" y="2226" class="mono">[EPSG:3857]</text>
<text x="1092" y="2260" class="id">79</text>
<text x="1132" y="2260" class="mono">-9117066.2960,-9105934.3469,</text>
<text x="1132" y="2283" class="mono">3593849.4142,3606802.4843</text>
<text x="1132" y="2306" class="mono">[EPSG:3857]</text>
<text x="1092" y="2340" class="id">80</text>
<text x="1132" y="2340" class="mono">-9128198.2450,-9117066.2960,</text>
<text x="1132" y="2363" class="mono">3593849.4142,3606802.4843</text>
<text x="1132" y="2386" class="mono">[EPSG:3857]</text>
<rect x="1425" y="730" width="325" height="1720" rx="12" fill="#fbfdff" stroke="#4aa3df" stroke-width="2"/>
<text x="1587.5" y="775" text-anchor="middle" class="h" font-size="25" fill="#4aa3df">Cells 81–100</text>
<text x="1437" y="820" class="id">81</text>
<text x="1477" y="820" class="mono">-9028010.7033,-9016878.7543,</text>
<text x="1477" y="843" class="mono">3606802.4843,3619769.0382</text>
<text x="1477" y="866" class="mono">[EPSG:3857]</text>
<text x="1437" y="900" class="id">82</text>
<text x="1477" y="900" class="mono">-9039142.6524,-9028010.7033,</text>
<text x="1477" y="923" class="mono">3606802.4843,3619769.0382</text>
<text x="1477" y="946" class="mono">[EPSG:3857]</text>
<text x="1437" y="980" class="id">83</text>
<text x="1477" y="980" class="mono">-9050274.6015,-9039142.6524,</text>
<text x="1477" y="1003" class="mono">3606802.4843,3619769.0382</text>
<text x="1477" y="1026" class="mono">[EPSG:3857]</text>
<text x="1437" y="1060" class="id">84</text>
<text x="1477" y="1060" class="mono">-9061406.5506,-9050274.6015,</text>
<text x="1477" y="1083" class="mono">3606802.4843,3619769.0382</text>
<text x="1477" y="1106" class="mono">[EPSG:3857]</text>
<text x="1437" y="1140" class="id">85</text>
<text x="1477" y="1140" class="mono">-9072538.4997,-9061406.5506,</text>
<text x="1477" y="1163" class="mono">3606802.4843,3619769.0382</text>
<text x="1477" y="1186" class="mono">[EPSG:3857]</text>
<text x="1437" y="1220" class="id">86</text>
<text x="1477" y="1220" class="mono">-9083670.4487,-9072538.4997,</text>
<text x="1477" y="1243" class="mono">3606802.4843,3619769.0382</text>
<text x="1477" y="1266" class="mono">[EPSG:3857]</text>
<text x="1437" y="1300" class="id">87</text>
<text x="1477" y="1300" class="mono">-9094802.3978,-9083670.4487,</text>
<text x="1477" y="1323" class="mono">3606802.4843,3619769.0382</text>
<text x="1477" y="1346" class="mono">[EPSG:3857]</text>
<text x="1437" y="1380" class="id">88</text>
<text x="1477" y="1380" class="mono">-9105934.3469,-9094802.3978,</text>
<text x="1477" y="1403" class="mono">3606802.4843,3619769.0382</text>
<text x="1477" y="1426" class="mono">[EPSG:3857]</text>
<text x="1437" y="1460" class="id">89</text>
<text x="1477" y="1460" class="mono">-9117066.2960,-9105934.3469,</text>
<text x="1477" y="1483" class="mono">3606802.4843,3619769.0382</text>
<text x="1477" y="1506" class="mono">[EPSG:3857]</text>
<text x="1437" y="1540" class="id">90</text>
<text x="1477" y="1540" class="mono">-9128198.2450,-9117066.2960,</text>
<text x="1477" y="1563" class="mono">3606802.4843,3619769.0382</text>
<text x="1477" y="1586" class="mono">[EPSG:3857]</text>
<text x="1437" y="1620" class="id">91</text>
<text x="1477" y="1620" class="mono">-9028010.7033,-9016878.7543,</text>
<text x="1477" y="1643" class="mono">3619769.0382,3632749.1434</text>
<text x="1477" y="1666" class="mono">[EPSG:3857]</text>
<text x="1437" y="1700" class="id">92</text>
<text x="1477" y="1700" class="mono">-9039142.6524,-9028010.7033,</text>
<text x="1477" y="1723" class="mono">3619769.0382,3632749.1434</text>
<text x="1477" y="1746" class="mono">[EPSG:3857]</text>
<text x="1437" y="1780" class="id">93</text>
<text x="1477" y="1780" class="mono">-9050274.6015,-9039142.6524,</text>
<text x="1477" y="1803" class="mono">3619769.0382,3632749.1434</text>
<text x="1477" y="1826" class="mono">[EPSG:3857]</text>
<text x="1437" y="1860" class="id">94</text>
<text x="1477" y="1860" class="mono">-9061406.5506,-9050274.6015,</text>
<text x="1477" y="1883" class="mono">3619769.0382,3632749.1434</text>
<text x="1477" y="1906" class="mono">[EPSG:3857]</text>
<text x="1437" y="1940" class="id">95</text>
<text x="1477" y="1940" class="mono">-9072538.4997,-9061406.5506,</text>
<text x="1477" y="1963" class="mono">3619769.0382,3632749.1434</text>
<text x="1477" y="1986" class="mono">[EPSG:3857]</text>
<text x="1437" y="2020" class="id">96</text>
<text x="1477" y="2020" class="mono">-9083670.4487,-9072538.4997,</text>
<text x="1477" y="2043" class="mono">3619769.0382,3632749.1434</text>
<text x="1477" y="2066" class="mono">[EPSG:3857]</text>
<text x="1437" y="2100" class="id">97</text>
<text x="1477" y="2100" class="mono">-9094802.3978,-9083670.4487,</text>
<text x="1477" y="2123" class="mono">3619769.0382,3632749.1434</text>
<text x="1477" y="2146" class="mono">[EPSG:3857]</text>
<text x="1437" y="2180" class="id">98</text>
<text x="1477" y="2180" class="mono">-9105934.3469,-9094802.3978,</text>
<text x="1477" y="2203" class="mono">3619769.0382,3632749.1434</text>
<text x="1477" y="2226" class="mono">[EPSG:3857]</text>
<text x="1437" y="2260" class="id">99</text>
<text x="1477" y="2260" class="mono">-9117066.2960,-9105934.3469,</text>
<text x="1477" y="2283" class="mono">3619769.0382,3632749.1434</text>
<text x="1477" y="2306" class="mono">[EPSG:3857]</text>
<text x="1437" y="2340" class="id">100</text>
<text x="1477" y="2340" class="mono"> -9128198.2450,-9117066.2960,</text>
<text x="1477" y="2363" class="mono">3619769.0382,3632749.1434</text>
<text x="1477" y="2386" class="mono">[EPSG:3857]</text>
<rect x="45" y="2470" width="1710" height="95" rx="12" fill="#fff7ed" stroke="#f59e0b" stroke-width="2"/>
<text x="70" y="2510" class="b" font-weight="700" fill="#c2410c">Note:</text>
<text x="140" y="2510" class="b">These extents come from exact 0.1° geographic boundaries transformed to EPSG:3857.</text>
<text x="140" y="2542" class="b">Shared boundaries are reused exactly, so adjacent cells meet without custom gaps.</text>
</svg>